<?xml version="1.0" encoding="utf-8"?><svg xmlns="http://www.w3.org/2000/svg" xmlns:xlink="http://www.w3.org/1999/xlink"><symbol fill="none" viewBox="0 0 24 24" id="abstract-shapes--circles" xmlns="http://www.w3.org/2000/svg"><path fill-rule="evenodd" clip-rule="evenodd" d="M10.333 13.867a4.533 4.533 0 100-9.067 4.533 4.533 0 000 9.067zm0 .8a5.333 5.333 0 100-10.667 5.333 5.333 0 000 10.667z" fill="#fff"/><path fill-rule="evenodd" clip-rule="evenodd" d="M13.267 19.733a5.067 5.067 0 100-10.133 5.067 5.067 0 000 10.133zm0 .267a5.333 5.333 0 100-10.667 5.333 5.333 0 000 10.667z" fill="#fff"/></symbol><symbol fill="none" viewBox="0 0 24 24" id="abstract-shapes--cross" xmlns="http://www.w3.org/2000/svg"><path d="M12 4c.483 0 .875.42.875.938v5.625h5.25c.483 0 .875.42.875.937 0 .518-.392.938-.875.938h-5.25v5.624c0 .518-.392.938-.875.938s-.875-.42-.875-.938v-5.625h-5.25c-.483 0-.875-.42-.875-.937 0-.518.392-.938.875-.938h5.25V4.939c0-.518.392-.938.875-.938z" fill="#E7E7E7"/></symbol><symbol fill="none" viewBox="0 0 24 24" id="abstract-shapes--triangles" xmlns="http://www.w3.org/2000/svg"><path fill-rule="evenodd" clip-rule="evenodd" d="M6.862 3.204L6.55 16.562l11.724-6.408-11.412-6.95zm.608 1.113l-.26 11.162 9.796-5.355L7.47 4.317z" fill="#E7E7E7"/><path fill-rule="evenodd" clip-rule="evenodd" d="M8.045 7.642L7.732 21l11.725-6.408-11.412-6.95zm.203.371L7.952 20.64l11.082-6.057L8.248 8.013z" fill="#E7E7E7"/></symbol><symbol fill="none" viewBox="0 0 24 24" id="abstract-shapes--zig-zag" xmlns="http://www.w3.org/2000/svg"><path fill-rule="evenodd" clip-rule="evenodd" d="M3 9.45L3.53 9l3.995 3.67 2.659-2.858 3.217 2.894 3.471-2.861 4.128 3.7-.524.455-3.625-3.249-3.472 2.862-3.147-2.83-2.664 2.865L3 9.45z" fill="#E7E7E7"/></symbol><symbol fill="none" viewBox="0 0 69 69" id="icons--align-icon" xmlns="http://www.w3.org/2000/svg"><path fill-rule="evenodd" clip-rule="evenodd" d="M34.5 69C53.554 69 69 53.554 69 34.5 69 15.446 53.554 0 34.5 0 15.446 0 0 15.446 0 34.5 0 53.554 15.446 69 34.5 69z" fill="#FEDC5A" fill-opacity=".1"/><path d="M41.2 43.667H26.8c-2 0-2.8-.854-2.8-2.974v-1.386c0-2.12.8-2.974 2.8-2.974h14.4c2 0 2.8.854 2.8 2.974v1.386c0 2.12-.8 2.974-2.8 2.974zM38.533 32.333h-9.066c-2 0-2.8-.853-2.8-2.973v-1.387c0-2.12.8-2.973 2.8-2.973h9.066c2 0 2.8.853 2.8 2.973v1.387c0 2.12-.8 2.973-2.8 2.973z" stroke="#FEDC5A" stroke-width="2" stroke-linecap="round" stroke-linejoin="round" fill="transparent"/><path d="M34 47.333v-3.2M34 35.333v-2.666M34 20.667v3.586" stroke="#FEDC5A" stroke-width="2" stroke-linecap="round" stroke-linejoin="round"/></symbol><symbol fill="none" viewBox="0 0 25 25" id="icons--arrow-cin" xmlns="http://www.w3.org/2000/svg"><path d="M9.61 18.746a1 1 0 010-1.414l5.292-5.293L9.61 6.746a1 1 0 111.414-1.414l6 6a1 1 0 010 1.414l-6 6a1 1 0 01-1.414 0z" fill="#fff"/></symbol><symbol fill="none" viewBox="0 0 24 25" id="icons--arrow-right-up" xmlns="http://www.w3.org/2000/svg"><path d="M8 7.5a1 1 0 011-1h8a1 1 0 011 1v8a1 1 0 11-2 0V9.914l-8.293 8.293a1 1 0 01-1.414-1.414L14.586 8.5H9a1 1 0 01-1-1z" fill="#fff"/></symbol><symbol fill="none" viewBox="0 0 24 24" id="icons--burger" xmlns="http://www.w3.org/2000/svg"><path d="M19 7H5M19 12H9M19 17h-6" stroke="#fff" stroke-width="2.011" stroke-linecap="round"/></symbol><symbol fill="none" viewBox="0 0 69 69" id="icons--camera-icon" xmlns="http://www.w3.org/2000/svg"><path fill-rule="evenodd" clip-rule="evenodd" d="M34.5 69C53.554 69 69 53.554 69 34.5 69 15.446 53.554 0 34.5 0 15.446 0 0 15.446 0 34.5 0 53.554 15.446 69 34.5 69z" fill="#5454D4" fill-opacity=".1"/><path d="M27.013 47.333h13.974c3.68 0 5.146-2.253 5.32-5L47 31.32c.187-2.88-2.107-5.32-5-5.32-.813 0-1.56-.467-1.933-1.187l-.96-1.933c-.614-1.213-2.214-2.213-3.574-2.213H32.48c-1.373 0-2.973 1-3.587 2.213l-.96 1.933A2.191 2.191 0 0126 26c-2.893 0-5.187 2.44-5 5.32l.693 11.013c.16 2.747 1.64 5 5.32 5zM32 28.667h4" stroke="#5454D4" stroke-width="2" stroke-linecap="round" stroke-linejoin="round" fill="transparent"/><path d="M34 42a4.342 4.342 0 004.333-4.333A4.342 4.342 0 0034 33.333a4.342 4.342 0 00-4.333 4.334A4.342 4.342 0 0034 42z" stroke="#5454D4" stroke-width="2" stroke-linecap="round" stroke-linejoin="round" fill="transparent"/></symbol><symbol fill="none" viewBox="0 0 69 69" id="icons--code-icon-purple" xmlns="http://www.w3.org/2000/svg"><path fill-rule="evenodd" clip-rule="evenodd" d="M34.5 69C53.554 69 69 53.554 69 34.5 69 15.446 53.554 0 34.5 0 15.446 0 0 15.446 0 34.5 0 53.554 15.446 69 34.5 69z" fill="#5454D4" fill-opacity=".1"/><path d="M30 35.333a5.622 5.622 0 00-2.16 1.907 1.37 1.37 0 000 1.52A5.623 5.623 0 0030 40.667M38.28 35.333a5.622 5.622 0 012.16 1.907 1.37 1.37 0 010 1.52 5.623 5.623 0 01-2.16 1.907" stroke="#5454D4" stroke-width="2" stroke-linecap="round" stroke-linejoin="round"/><path d="M30 47.333h8c6.667 0 9.333-2.666 9.333-9.333v-8c0-6.667-2.666-9.333-9.333-9.333h-8c-6.667 0-9.333 2.666-9.333 9.333v8c0 6.667 2.666 9.333 9.333 9.333z" stroke="#5454D4" stroke-width="2" stroke-linecap="round" stroke-linejoin="round" fill="transparent"/><path d="M20.973 28.68l25.627-.013" stroke="#5454D4" stroke-width="2" stroke-linecap="round" stroke-linejoin="round"/></symbol><symbol fill="none" viewBox="0 0 69 69" id="icons--code-icon-yellow" xmlns="http://www.w3.org/2000/svg"><path fill-rule="evenodd" clip-rule="evenodd" d="M34.5 69C53.554 69 69 53.554 69 34.5 69 15.446 53.554 0 34.5 0 15.446 0 0 15.446 0 34.5 0 53.554 15.446 69 34.5 69z" fill="#FEDC5A" fill-opacity=".1"/><path d="M30 35.333a5.623 5.623 0 00-2.16 1.907 1.37 1.37 0 000 1.52A5.623 5.623 0 0030 40.667M38.28 35.333a5.623 5.623 0 012.16 1.907 1.37 1.37 0 010 1.52 5.623 5.623 0 01-2.16 1.907" stroke="#FEDC5A" stroke-width="2" stroke-linecap="round" stroke-linejoin="round"/><path d="M30 47.333h8c6.667 0 9.333-2.666 9.333-9.333v-8c0-6.667-2.666-9.333-9.333-9.333h-8c-6.667 0-9.333 2.666-9.333 9.333v8c0 6.667 2.666 9.333 9.333 9.333z" stroke="#FEDC5A" stroke-width="2" stroke-linecap="round" stroke-linejoin="round" fill="transparent"/><path d="M20.973 28.68l25.627-.013" stroke="#FEDC5A" stroke-width="2" stroke-linecap="round" stroke-linejoin="round"/></symbol><symbol fill="none" viewBox="0 0 48 48" id="icons--figma" xmlns="http://www.w3.org/2000/svg"><rect width="48" height="48" rx="24" fill="#4646C2"/><g fill="#fff"><path opacity=".5" d="M19.146 40a5.335 5.335 0 005.333-5.333v-5.334h-5.333a5.335 5.335 0 00-5.334 5.334A5.335 5.335 0 0019.146 40z"/><path opacity=".7" d="M13.813 24a5.335 5.335 0 015.333-5.333h5.333v10.666h-5.333A5.335 5.335 0 0113.812 24z"/><path d="M13.813 13.333A5.335 5.335 0 0119.145 8h5.333v10.667h-5.333a5.335 5.335 0 01-5.334-5.334z"/><path opacity=".85" d="M24.48 8h5.332a5.335 5.335 0 015.334 5.333 5.335 5.335 0 01-5.334 5.334H24.48V8z"/><path opacity=".9" d="M35.146 24a5.335 5.335 0 01-5.334 5.333A5.335 5.335 0 0124.48 24a5.335 5.335 0 015.334-5.333A5.335 5.335 0 0135.145 24z"/></g></symbol><symbol fill="none" viewBox="0 0 48 48" id="icons--github" xmlns="http://www.w3.org/2000/svg"><rect width="48" height="48" rx="24" fill="#4646C2"/><path fill-rule="evenodd" clip-rule="evenodd" d="M31.422 46.829A23.958 23.958 0 0124 48a23.96 23.96 0 01-7.427-1.173c1.08.13 1.48-.574 1.48-1.181 0-.265-.005-.731-.011-1.355-.007-.722-.016-1.655-.023-2.73-6.676 1.452-8.084-3.22-8.084-3.22C8.844 35.569 7.27 34.83 7.27 34.83c-2.179-1.49.166-1.46.166-1.46 2.407.17 3.675 2.475 3.675 2.475 2.141 3.67 5.617 2.61 6.985 1.995.218-1.552.838-2.61 1.524-3.21-5.33-.607-10.932-2.666-10.932-11.87 0-2.622.934-4.765 2.47-6.445-.247-.607-1.07-3.048.235-6.355 0 0 2.015-.646 6.6 2.462 1.915-.533 3.967-.799 6.009-.81 2.038.01 4.091.277 6.009.81 4.58-3.108 6.592-2.462 6.592-2.462 1.31 3.307.486 5.748.239 6.355 1.538 1.68 2.467 3.823 2.467 6.446 0 9.225-5.611 11.256-10.957 11.85.86.742 1.628 2.207 1.628 4.448 0 2.147-.013 4.016-.022 5.255-.004.613-.007 1.072-.007 1.333 0 .61.39 1.315 1.471 1.183z" fill="#fff"/></symbol><symbol fill="none" viewBox="0 0 69 69" id="icons--layers-icon" xmlns="http://www.w3.org/2000/svg"><path fill-rule="evenodd" clip-rule="evenodd" d="M34.5 69C53.554 69 69 53.554 69 34.5 69 15.446 53.554 0 34.5 0 15.446 0 0 15.446 0 34.5 0 53.554 15.446 69 34.5 69z" fill="#F04037" fill-opacity=".1"/><path d="M35.347 21.893l7.866 3.494c2.267 1 2.267 2.653 0 3.653l-7.866 3.493c-.894.4-2.36.4-3.254 0l-7.866-3.493c-2.267-1-2.267-2.653 0-3.653l7.866-3.494c.894-.4 2.36-.4 3.254 0z" stroke="#F04037" stroke-width="2" stroke-linecap="round" stroke-linejoin="round" fill="transparent"/><path d="M22 32.667c0 1.12.84 2.413 1.867 2.866l9.053 4.027a2.65 2.65 0 002.16 0l9.053-4.027C45.16 35.08 46 33.787 46 32.667" stroke="#F04037" stroke-width="2" stroke-linecap="round" stroke-linejoin="round" fill="transparent"/><path d="M22 39.333c0 1.24.733 2.36 1.867 2.867l9.053 4.027a2.65 2.65 0 002.16 0l9.053-4.027A3.143 3.143 0 0046 39.333" stroke="#F04037" stroke-width="2" stroke-linecap="round" stroke-linejoin="round" fill="transparent"/></symbol><symbol fill="none" viewBox="0 0 69 69" id="icons--video-icon" xmlns="http://www.w3.org/2000/svg"><path fill-rule="evenodd" clip-rule="evenodd" d="M34.5 69C53.554 69 69 53.554 69 34.5 69 15.446 53.554 0 34.5 0 15.446 0 0 15.446 0 34.5 0 53.554 15.446 69 34.5 69z" fill="#F04037" fill-opacity=".1"/><path d="M47.333 38v-8c0-6.667-2.666-9.333-9.333-9.333h-8c-6.667 0-9.333 2.666-9.333 9.333v8c0 6.667 2.666 9.333 9.333 9.333h8c6.667 0 9.333-2.666 9.333-9.333z" stroke="#F04037" stroke-width="2" stroke-linecap="round" stroke-linejoin="round" fill="transparent"/><path d="M21.36 27.48h25.28M29.36 20.813v6.48M38.64 20.813v5.88" stroke="#F04037" stroke-width="2" stroke-linecap="round" stroke-linejoin="round"/><path d="M31 37.267v-1.6c0-2.054 1.453-2.894 3.227-1.867l1.386.8 1.387.8c1.773 1.027 1.773 2.707 0 3.733l-1.387.8-1.386.8C32.453 41.76 31 40.92 31 38.867v-1.6 0z" stroke="#F04037" stroke-width="2" stroke-miterlimit="10" stroke-linecap="round" stroke-linejoin="round" fill="transparent"/></symbol></svg>