<svg width="69" height="69" viewBox="0 0 69 69" fill="none" xmlns="http://www.w3.org/2000/svg">
<path fill-rule="evenodd" clip-rule="evenodd" d="M34.5 69C53.5538 69 69 53.5538 69 34.5C69 15.4462 53.5538 0 34.5 0C15.4462 0 0 15.4462 0 34.5C0 53.5538 15.4462 69 34.5 69Z" fill="#F04037" fill-opacity="0.1"/>
<path d="M47.3334 38V30C47.3334 23.3333 44.6667 20.6667 38 20.6667H30C23.3334 20.6667 20.6667 23.3333 20.6667 30V38C20.6667 44.6667 23.3334 47.3333 30 47.3333H38C44.6667 47.3333 47.3334 44.6667 47.3334 38Z" stroke="#F04037" stroke-width="2" stroke-linecap="round" stroke-linejoin="round" fill="transparent"/>
<path d="M21.36 27.48H46.64" stroke="#F04037" stroke-width="2" stroke-linecap="round" stroke-linejoin="round"/>
<path d="M29.36 20.8133V27.2933" stroke="#F04037" stroke-width="2" stroke-linecap="round" stroke-linejoin="round"/>
<path d="M38.64 20.8133V26.6933" stroke="#F04037" stroke-width="2" stroke-linecap="round" stroke-linejoin="round"/>
<path d="M31 37.2667V35.6667C31 33.6133 32.4533 32.7733 34.2267 33.8L35.6133 34.6L37 35.4C38.7733 36.4267 38.7733 38.1067 37 39.1333L35.6133 39.9333L34.2267 40.7333C32.4533 41.76 31 40.92 31 38.8667V37.2667V37.2667Z" stroke="#F04037" stroke-width="2" stroke-miterlimit="10" stroke-linecap="round" stroke-linejoin="round" fill="transparent"/>
</svg>
