<svg width="28" height="28" fill="none" xmlns="http://www.w3.org/2000/svg"><path fill-rule="evenodd" clip-rule="evenodd" d="M14 28C21.732 28 28 21.732 28 14C28 6.26801 21.732 0 14 0C6.26801 0 0 6.26801 0 14C0 21.732 6.26801 28 14 28Z" fill="#5454D4"/><path d="M16.1994 13.9018L11.9149 11.5309C11.8791 11.511 11.8351 11.5112 11.7995 11.5315C11.7638 11.5517 11.7419 11.5889 11.7419 11.6291V16.3709C11.7419 16.4111 11.7638 16.4483 11.7995 16.4685C11.8351 16.4888 11.8791 16.489 11.9149 16.4691L16.1994 14.0982C16.2356 14.0782 16.2581 14.0406 16.2581 14C16.2581 13.9593 16.2356 13.9218 16.1994 13.9018Z" fill="white"/></svg>