<svg width="24" height="24" viewBox="0 0 24 24" fill="none" xmlns="http://www.w3.org/2000/svg">
<path fill-rule="evenodd" clip-rule="evenodd" d="M10.3333 13.8667C12.837 13.8667 14.8667 11.837 14.8667 9.33333C14.8667 6.82964 12.837 4.8 10.3333 4.8C7.82964 4.8 5.8 6.82964 5.8 9.33333C5.8 11.837 7.82964 13.8667 10.3333 13.8667ZM10.3333 14.6667C13.2789 14.6667 15.6667 12.2789 15.6667 9.33333C15.6667 6.38781 13.2789 4 10.3333 4C7.38781 4 5 6.38781 5 9.33333C5 12.2789 7.38781 14.6667 10.3333 14.6667Z" fill="white"/>
<path fill-rule="evenodd" clip-rule="evenodd" d="M13.2667 19.7333C16.0649 19.7333 18.3334 17.4649 18.3334 14.6667C18.3334 11.8684 16.0649 9.59999 13.2667 9.59999C10.4684 9.59999 8.20002 11.8684 8.20002 14.6667C8.20002 17.4649 10.4684 19.7333 13.2667 19.7333ZM13.2667 20C16.2122 20 18.6 17.6122 18.6 14.6667C18.6 11.7211 16.2122 9.33333 13.2667 9.33333C10.3212 9.33333 7.93335 11.7211 7.93335 14.6667C7.93335 17.6122 10.3212 20 13.2667 20Z" fill="white"/>
</svg>
