<svg width="69" height="69" viewBox="0 0 69 69" fill="none" xmlns="http://www.w3.org/2000/svg">
<path fill-rule="evenodd" clip-rule="evenodd" d="M34.5 69C53.5538 69 69 53.5538 69 34.5C69 15.4462 53.5538 0 34.5 0C15.4462 0 0 15.4462 0 34.5C0 53.5538 15.4462 69 34.5 69Z" fill="#FEDC5A" fill-opacity="0.1"/>
<path d="M30 35.3333C29.12 35.7733 28.3867 36.4267 27.84 37.24C27.5334 37.7067 27.5334 38.2933 27.84 38.76C28.3867 39.5733 29.12 40.2267 30 40.6667" stroke="#FEDC5A" stroke-width="2" stroke-linecap="round" stroke-linejoin="round"/>
<path d="M38.28 35.3333C39.16 35.7733 39.8933 36.4267 40.44 37.24C40.7466 37.7067 40.7466 38.2933 40.44 38.76C39.8933 39.5733 39.16 40.2267 38.28 40.6667" stroke="#FEDC5A" stroke-width="2" stroke-linecap="round" stroke-linejoin="round"/>
<path d="M30 47.3333H38C44.6667 47.3333 47.3333 44.6666 47.3333 38V30C47.3333 23.3333 44.6667 20.6666 38 20.6666H30C23.3333 20.6666 20.6667 23.3333 20.6667 30V38C20.6667 44.6666 23.3333 47.3333 30 47.3333Z" stroke="#FEDC5A" stroke-width="2" stroke-linecap="round" stroke-linejoin="round"/>
<path d="M20.9733 28.68L46.6 28.6666" stroke="#FEDC5A" stroke-width="2" stroke-linecap="round" stroke-linejoin="round"/>
</svg>
